<mxfile host="app.diagrams.net" modified="2023-09-05T20:09:24.333Z" agent="Mozilla/5.0 (X11; Linux x86_64) AppleWebKit/537.36 (KHTML, like Gecko) Chrome/116.0.0.0 Safari/537.36" etag="yO4d4naHT6w38TIkOJkN" version="21.7.2" type="device">
  <diagram name="Page-1" id="oUxt1_GDRp-Z4G8BVn_W">
    <mxGraphModel dx="1874" dy="1693" grid="1" gridSize="10" guides="1" tooltips="1" connect="1" arrows="1" fold="1" page="1" pageScale="1" pageWidth="850" pageHeight="1100" math="0" shadow="0">
      <root>
        <mxCell id="0" />
        <mxCell id="1" parent="0" />
        <mxCell id="OtKb_97L34Ql5yTuMeM5-17" value="" style="rounded=0;whiteSpace=wrap;html=1;strokeColor=#808080;" vertex="1" parent="1">
          <mxGeometry x="-310" y="20" width="180" height="360" as="geometry" />
        </mxCell>
        <mxCell id="OtKb_97L34Ql5yTuMeM5-3" value="Google Cloud" style="sketch=0;outlineConnect=0;gradientColor=none;html=1;whiteSpace=wrap;fontSize=12;fontStyle=0;shape=mxgraph.aws4.group;grIcon=mxgraph.aws4.group_vpc;strokeColor=#879196;fillColor=none;verticalAlign=top;align=left;spacingLeft=30;fontColor=#879196;dashed=0;" vertex="1" parent="1">
          <mxGeometry x="-80" y="20" width="630" height="270" as="geometry" />
        </mxCell>
        <mxCell id="2LXiPZcjcSscnOcJBIli-4" value="User Browser" style="shape=image;html=1;verticalAlign=top;verticalLabelPosition=bottom;labelBackgroundColor=#ffffff;imageAspect=0;aspect=fixed;image=https://cdn3.iconfinder.com/data/icons/drifting/Internet-Browser.png" parent="1" vertex="1">
          <mxGeometry x="280" y="390" width="64" height="64" as="geometry" />
        </mxCell>
        <mxCell id="2LXiPZcjcSscnOcJBIli-6" value="" style="strokeColor=#dddddd;shadow=1;strokeWidth=1;rounded=1;absoluteArcSize=1;arcSize=2;" parent="1" vertex="1">
          <mxGeometry x="160" y="330" width="150" height="44" as="geometry" />
        </mxCell>
        <mxCell id="2LXiPZcjcSscnOcJBIli-7" value="NextJS Frontend" style="sketch=0;dashed=0;connectable=0;html=1;fillColor=#757575;strokeColor=none;shape=mxgraph.gcp2.frontend_platform_services;part=1;labelPosition=right;verticalLabelPosition=middle;align=left;verticalAlign=middle;spacingLeft=5;fontSize=12;" parent="2LXiPZcjcSscnOcJBIli-6" vertex="1">
          <mxGeometry y="0.5" width="32" height="32" relative="1" as="geometry">
            <mxPoint x="5" y="-16" as="offset" />
          </mxGeometry>
        </mxCell>
        <mxCell id="2LXiPZcjcSscnOcJBIli-9" value="      NextJS API&#xa;Gateway" style="strokeColor=#dddddd;shadow=1;strokeWidth=1;rounded=1;absoluteArcSize=1;arcSize=2;" parent="1" vertex="1">
          <mxGeometry x="160" y="220" width="150" height="44" as="geometry" />
        </mxCell>
        <mxCell id="2LXiPZcjcSscnOcJBIli-13" value="" style="sketch=0;html=1;verticalAlign=top;labelPosition=center;verticalLabelPosition=bottom;align=center;spacingTop=-6;fontSize=11;fontStyle=1;fontColor=#999999;shape=image;aspect=fixed;imageAspect=0;image=data:image/svg+xml,PHN2ZyB4bWxucz0iaHR0cDovL3d3dy53My5vcmcvMjAwMC9zdmciIHhtbG5zOnY9Imh0dHBzOi8vdmVjdGEuaW8vbmFubyIgd2lkdGg9IjM2NS40NjQ5OTY3NzA0MjQ5MyIgaGVpZ2h0PSIzNzkuMjIyOTk0NDYzNTc3OTUiIHZpZXdCb3g9IjAgMCA5Ni42OTU5OTkxNDU1MDc4MSAxMDAuMzM1OTk4NTM1MTU2MjUiPiYjeGE7PHN0eWxlIHR5cGU9InRleHQvY3NzIj4mI3hhOwkuc3Qwe2ZpbGw6IzQyODVmNDt9JiN4YTsJLnN0MXtmaWxsOiNhZWNiZmE7fSYjeGE7PC9zdHlsZT4mI3hhOwk8cGF0aCBjbGFzcz0ic3QwIiBkPSJNMjkuNzk0IDEwMC4zMzZMNDYuOTIgNTAuMTY4aDQ5Ljc3NnpNMCA5OS42NzFsMTIuOTc2LTQ5LjUwMkgyOS4yMkwxNi44OTcgOTIuMDU0eiIvPiYjeGE7CTxwYXRoIGNsYXNzPSJzdDEiIGQ9Ik0yOS43OTQgMEw0Ni45MiA1MC4xNjhoNDkuNzc2ek0wIC42NjZsMTIuOTc2IDQ5LjUwMkgyOS4yMkwxNi44OTcgOC4yODN6Ii8+JiN4YTs8L3N2Zz4=;" parent="1" vertex="1">
          <mxGeometry x="173" y="227" width="30" height="30" as="geometry" />
        </mxCell>
        <mxCell id="2LXiPZcjcSscnOcJBIli-21" value="GO Scraper" style="sketch=0;html=1;verticalAlign=top;labelPosition=center;verticalLabelPosition=bottom;align=center;spacingTop=-6;fontSize=11;fontStyle=1;fontColor=#999999;shape=image;aspect=fixed;imageAspect=0;image=data:image/svg+xml,PHN2ZyB4bWxucz0iaHR0cDovL3d3dy53My5vcmcvMjAwMC9zdmciIHhtbG5zOnY9Imh0dHBzOi8vdmVjdGEuaW8vbmFubyIgd2lkdGg9IjIwIiBoZWlnaHQ9IjE5Ljk4OTk5OTc3MTExODE2NCIgdmlld0JveD0iMCAwIDIwIDE5Ljk4OTk5OTc3MTExODE2NCI+JiN4YTsJPHN0eWxlIHR5cGU9InRleHQvY3NzIj4mI3hhOwkuc3Qwe2ZpbGw6IzQyODVmNDt9JiN4YTsJLnN0MXtmaWxsOiM2NjlkZjY7fSYjeGE7CS5zdDJ7ZmlsbDojYWVjYmZhO30mI3hhOwk8L3N0eWxlPiYjeGE7CTxwYXRoIGNsYXNzPSJzdDEiIGQ9Ik0zIDMuOTlMMCA2LjQydjcuMTNsMyAyLjQ0eiIvPiYjeGE7CTxwYXRoIGNsYXNzPSJzdDAiIGQ9Ik0zIDMuOTlsLTMgNCAzLTJ6bS0zIDhsMyA0di0yeiIvPiYjeGE7CTxwYXRoIGNsYXNzPSJzdDIiIGQ9Ik0wIDE1Ljk5bDQgNCAyLTItNi02em0uMDEtOEw1Ljk5IDJsLTItMkwwIDMuOTl6Ii8+JiN4YTsJPHBhdGggY2xhc3M9InN0MSIgZD0iTTE3IDE2bDMtMi40MlY2LjQ0TDE3IDR6Ii8+JiN4YTsJPHBhdGggY2xhc3M9InN0MCIgZD0iTTE3IDE2bDMtNC0zIDJ6bTMtOGwtMy00djJ6Ii8+JiN4YTsJPGcgY2xhc3M9InN0MiI+JiN4YTsJCTxwYXRoIGQ9Ik0yMCA0bC00LTQtMiAyIDYgNnptLS4wMSA4bC01Ljk4IDUuOTkgMiAyTDIwIDE2eiIvPiYjeGE7CQk8Y2lyY2xlIGN4PSI2IiBjeT0iOS45OSIgcj0iMSIvPiYjeGE7CQk8Y2lyY2xlIGN4PSIxMCIgY3k9IjkuOTkiIHI9IjEiLz4mI3hhOwkJPGNpcmNsZSBjeD0iMTMuOTkiIGN5PSI5Ljk5IiByPSIxIi8+JiN4YTsJPC9nPiYjeGE7PC9zdmc+;" parent="1" vertex="1">
          <mxGeometry x="174" y="60" width="42" height="34" as="geometry" />
        </mxCell>
        <mxCell id="2LXiPZcjcSscnOcJBIli-22" value="GO Backend" style="sketch=0;html=1;verticalAlign=top;labelPosition=center;verticalLabelPosition=bottom;align=center;spacingTop=-6;fontSize=11;fontStyle=1;fontColor=#999999;shape=image;aspect=fixed;imageAspect=0;image=data:image/svg+xml,PHN2ZyB4bWxucz0iaHR0cDovL3d3dy53My5vcmcvMjAwMC9zdmciIHhtbG5zOnY9Imh0dHBzOi8vdmVjdGEuaW8vbmFubyIgd2lkdGg9IjIwIiBoZWlnaHQ9IjE5Ljk4OTk5OTc3MTExODE2NCIgdmlld0JveD0iMCAwIDIwIDE5Ljk4OTk5OTc3MTExODE2NCI+JiN4YTsJPHN0eWxlIHR5cGU9InRleHQvY3NzIj4mI3hhOwkuc3Qwe2ZpbGw6IzQyODVmNDt9JiN4YTsJLnN0MXtmaWxsOiM2NjlkZjY7fSYjeGE7CS5zdDJ7ZmlsbDojYWVjYmZhO30mI3hhOwk8L3N0eWxlPiYjeGE7CTxwYXRoIGNsYXNzPSJzdDEiIGQ9Ik0zIDMuOTlMMCA2LjQydjcuMTNsMyAyLjQ0eiIvPiYjeGE7CTxwYXRoIGNsYXNzPSJzdDAiIGQ9Ik0zIDMuOTlsLTMgNCAzLTJ6bS0zIDhsMyA0di0yeiIvPiYjeGE7CTxwYXRoIGNsYXNzPSJzdDIiIGQ9Ik0wIDE1Ljk5bDQgNCAyLTItNi02em0uMDEtOEw1Ljk5IDJsLTItMkwwIDMuOTl6Ii8+JiN4YTsJPHBhdGggY2xhc3M9InN0MSIgZD0iTTE3IDE2bDMtMi40MlY2LjQ0TDE3IDR6Ii8+JiN4YTsJPHBhdGggY2xhc3M9InN0MCIgZD0iTTE3IDE2bDMtNC0zIDJ6bTMtOGwtMy00djJ6Ii8+JiN4YTsJPGcgY2xhc3M9InN0MiI+JiN4YTsJCTxwYXRoIGQ9Ik0yMCA0bC00LTQtMiAyIDYgNnptLS4wMSA4bC01Ljk4IDUuOTkgMiAyTDIwIDE2eiIvPiYjeGE7CQk8Y2lyY2xlIGN4PSI2IiBjeT0iOS45OSIgcj0iMSIvPiYjeGE7CQk8Y2lyY2xlIGN4PSIxMCIgY3k9IjkuOTkiIHI9IjEiLz4mI3hhOwkJPGNpcmNsZSBjeD0iMTMuOTkiIGN5PSI5Ljk5IiByPSIxIi8+JiN4YTsJPC9nPiYjeGE7PC9zdmc+;" parent="1" vertex="1">
          <mxGeometry x="174" y="120" width="42" height="34" as="geometry" />
        </mxCell>
        <mxCell id="2LXiPZcjcSscnOcJBIli-27" value="" style="endArrow=classic;html=1;rounded=0;exitX=1;exitY=0.75;exitDx=0;exitDy=0;entryX=0;entryY=0.5;entryDx=0;entryDy=0;entryPerimeter=0;" parent="1" edge="1" target="OtKb_97L34Ql5yTuMeM5-12">
          <mxGeometry width="50" height="50" relative="1" as="geometry">
            <mxPoint x="263.75" y="149.5" as="sourcePoint" />
            <mxPoint x="382" y="142" as="targetPoint" />
          </mxGeometry>
        </mxCell>
        <mxCell id="2LXiPZcjcSscnOcJBIli-28" value="" style="endArrow=classic;html=1;rounded=0;exitX=1;exitY=0.25;exitDx=0;exitDy=0;" parent="1" edge="1" target="OtKb_97L34Ql5yTuMeM5-15" source="OtKb_97L34Ql5yTuMeM5-9">
          <mxGeometry width="50" height="50" relative="1" as="geometry">
            <mxPoint x="240" y="76.62" as="sourcePoint" />
            <mxPoint x="405" y="84.76303317535553" as="targetPoint" />
          </mxGeometry>
        </mxCell>
        <mxCell id="2LXiPZcjcSscnOcJBIli-29" value="" style="endArrow=classic;html=1;rounded=0;exitX=0.27;exitY=0.012;exitDx=0;exitDy=0;exitPerimeter=0;" parent="1" source="2LXiPZcjcSscnOcJBIli-9" edge="1" target="OtKb_97L34Ql5yTuMeM5-9">
          <mxGeometry width="50" height="50" relative="1" as="geometry">
            <mxPoint x="30" y="250" as="sourcePoint" />
            <mxPoint x="200" y="170" as="targetPoint" />
          </mxGeometry>
        </mxCell>
        <mxCell id="2LXiPZcjcSscnOcJBIli-30" value="" style="endArrow=classic;html=1;rounded=0;exitX=0.534;exitY=-0.016;exitDx=0;exitDy=0;exitPerimeter=0;entryX=0.536;entryY=1.054;entryDx=0;entryDy=0;entryPerimeter=0;" parent="1" source="2LXiPZcjcSscnOcJBIli-6" target="2LXiPZcjcSscnOcJBIli-9" edge="1">
          <mxGeometry width="50" height="50" relative="1" as="geometry">
            <mxPoint x="230" y="330" as="sourcePoint" />
            <mxPoint x="280" y="280" as="targetPoint" />
          </mxGeometry>
        </mxCell>
        <mxCell id="2LXiPZcjcSscnOcJBIli-32" value="" style="endArrow=classic;html=1;rounded=0;exitX=1.112;exitY=0.447;exitDx=0;exitDy=0;exitPerimeter=0;" parent="1" edge="1">
          <mxGeometry width="50" height="50" relative="1" as="geometry">
            <mxPoint x="83.36000000000013" y="77.41000000000008" as="sourcePoint" />
            <mxPoint x="130" y="80" as="targetPoint" />
          </mxGeometry>
        </mxCell>
        <mxCell id="2LXiPZcjcSscnOcJBIli-33" value="" style="shape=image;verticalLabelPosition=bottom;labelBackgroundColor=default;verticalAlign=top;aspect=fixed;imageAspect=0;image=data:image/png,iVBORw0KGgoAAAANSUhEUgAAAZ4AAAB6CAMAAAC4AMUdAAAAilBMVEX///8AAACMjIyTk5OEhITy8vL6+voyMjKPj488PDzDw8Pb29vi4uJzc3P39/fIyMhaWlpFRUWysrLR0dEqKirn5+dvb2+hoaEUFBRTU1MfHx+bm5vY2Nju7u5nZ2fMzMy8vLyqqqp7e3tBQUEkJCQMDAwYGBhVVVU2NjZLS0suLi6np6exsbFgYGCrEbacAAAPLUlEQVR4nO1d62KyMAx1KjhvOMW74tDppm6+/+t9E0HaNGmDIOg+zk9tgebQNE3SUKnIaG3qHFSrrGb1qlMpkSGGLyzsv3ntXtyiB/Sn4DGlXrWZDTdFj+hPYc2eFF+8hs1Su2WIA0/oDbsyYRK5LHpIfwgOU+abBGqw6DH9IfwwZf7+2/aD17RvFz2ov4MTT+QN67ftgkllqd2yAle3dc+NO8zGtaJH9WcwYEq8F7RmbpH6BQ/q72DME/jQC1rXmGS2Cx7VXwF3qzm+NF8ym0+KHdWfgc+Utx+2ZzYvtVs22PDEPfXC9lUmP6V2ywJcu20VdXhndlgXOao/gx5T2oNrD2aHUrtlAaZue/GuPerMHp0CR/VX4Gx5sl7FXVpMegb0XR8fP7O3GF+LjK669L/Hs/7+uO/PuusWY3V2mbIWVxJml0NGYyoE8vaum8UlWxs4FYb1nqEPV1N5Qp/uDX2eDVnT4y1wNbVfW5pezp4n6ZPYiavd/NSDKg7Z0uPUdqSU5hPau3+TD8CZ8jqdqLs+ATKlZ6B3VO5bVEfuHlPWUytmr4cN+tiOCOwxM6THMy8GdVxSTp8nZ7DKJ/UDPRwWzX6MjxMinOzoWXJ8/M0R1rXNlDMwLL1PXrdxilHdFbJBtL8nPUwnyxzbJb7y+r5Abt+Y/W4f1X0h09O8Iz1cM+pliuyCmCk6TdiPq93INa9g5EYPVz39YqvsQ7idlcj0iGm7PWo6Yl70WMzYcoAZfAxuXoc672bMnjcO697Iix5mkk0ImH3G1G2f6n2T5F49IHKiB03anI5r33WcN1laXN32qt6Ym7DzoOmI+dCDCGm+jlaYDqK6GlLuc5rzBs+t3fKhR1VO8iKu2s2v+u58ET/3UZJc6FGCATsoDMXq3gk7mA7tppNQx+7N1W6IYnwA5EIP9Mh8qjtPhUHB1E23vDO12/GWgd0dedCjiB5TJMr8iSlMt3xwjfKHDGnnQQ80zr7RVjCr87o6cbeWxKPdvKV9BORADzxqQ8SOHXDkYxg9S0rHjM10dn8wh2N12r3Bd61aff1x26M7hyLkOIris6ro6bFH7WVv0Fq2O5pDgFC7UIkF0GXqh79vqq9VDihJ+azetTfUVS7Deq+vmuIzTg9dH6dotOoKGFMXX47FZqtQjJ1qLcBCtlm3r7UY4QVIekbfq/7VYf8x9qknAO6cFdFMsZ/DGKazI2JA2aI3NyZbt+u4Z+owQZIVgMVIvZNgyQ3j+ZycvvACBD3viq9+N0ZNpxFoRm8wgBabOtGjNu6/Kdno3pvL02mCE9OFkidRKD0d3BdzQp4C+HM0BqwNbIDLYhJsWe+8bi+PgmzwFgbzcQiT5Yqkh47dqBoCjAs32y4AyVKXbeZFoczuafeGb5DGLco46L2S2S2QnrWmlxIXBv/rxAw2SMFEu+rGH03HVPCiF4h0i9qsoOtWWnyLo2et7QZUOBD5VicoOCkt6bfVfUpExCsetfg4c4a0fjEXLYTC6DFFpWXX10T3pwwlyb0F+t8hKGMLyUNbYvE5MoQVYC90Kooey7iJl/aHIHfKJwXVVqVwXqekpUtH7k14l1J58K0Bs/7LGYJmL4oexkEOcZ/SlP8ik90xx/9Z28i/NLK1EEByo4+14frsAsTzuxh6Nhajp7DGgvO6U+IpLXTxHSJn4nSWX0J0YOUQLKiAZQ9vN78b+loVCUM14ovLf+REz4mV9R8rcbApxbxG54ckFl/MoXnK6jyBOl+xfB3lvflYeJF2sL4b8N/r9ElFz/u8EWAvp1HuGjGidY6uD/B7DSL/Jk7WBJ4APB2TTKAeYXbIp5+IBQIWkn+NmG7KeyzPXgeea7lm06eipxImVUOPtSXkXIctcXqO1ZZ1bmT1qghFw+vtwSuK7f47tEvZxSuBbNKb2D0svbevXheQuFdK8MCl6Toq+eeE9ERIGlC4YD4QBmJ9q0NtE7199fpiLHQOfEUtYrv+kdIJZ+PzVc1/BLq5gdh2wCsSma0F0vMFhuE1YYurdgNyUGIyjriWfXlgsvhkcnWqWh5toprYVJE+mPzYWwH23dGDFUePGpJTckCvKhhYEnBj6Ypra01Zqn7oM4uc8AwBOnlHuWZrczrEY8PTReRLRKtrYfS8IXeBBtYuuhDQVkB1i6qrcaYOhOQmmuOhU58YsQGe5kwWuqvy2q7/ujrsp8S2Vd4IRh75oujZoWOAb3l0n5Omryf+uQoUJqC5pj3f1r0lTNfSHfnRbXrtDiHitXyN8Nei6MGPzlNBN3nbINEjCeobHVRdf/xwmLiUoa0/4H2TTwKslxV0JHnR80nofGDADNCfBXok46kZyRmw3DWdfU9YZqFtON/9/PRQXneQKxjOBlt2fMS5n5JDZXO9LcjqWRk9fP0kFoLRfXaTuQGM02iA8q950eMT9wGLevRag9kTjX9NXFKhx1zTkHogBZYxVVs1rBmAWcL4z3nRQ90HJEJHNii69tiiTdAUN1FAuY05CbzcKJD5Sg1dtgEOS9mYRfKQf82Jnjn1goGSRBE9wLAOntLFGqKD2jByEHdcF6n5+PAhkSk4ag0whxY+kpzo2ZMvmBxNi6QOyrOen1LS1WAfDtz3dYZrnX3o3Xwy3JBKdcHIbQ3qsyF5aiJsVgw9TZIe2bce0QMsL7fiiSvACfogARtVxWBXwS/3ZQzzmoKx7dbrbGs6zRK2fQ56wD7DlZSVGloDuuybsWLw1wtjUStdqG/kj5XgDoqw/XPQAwwL0ZxuIptKYAkMzNXCWQrpAqOipHe57yvmMYkno4fO30ODNqC5b65RmaBQq21KiKKMDJ95yCFA2Oc56KEK6xMOTaB/3s2V+ZPYwoYy8ko5hQtG3ONfF4S9noMeosbkF+E+AZH9jvH0FOY+J2HI0MMtg3fmydYIYbfnoAevPv1KbTCAhj//pNdIicJylv5aaL1MYymgPTBOw37PQY+NvHtzum4oaHj+Sb/4JEvb0dcmwYamrzC77dd7UMJhx+egB6lJcKKXCyCMIOaqtbcSlgjX+iCw/S053+b7t7rvWshFw55PQo+y2dDFACZYU51GShhQGOlicdj+Fpu68+6PVNn5qekBgf1PbclqYFpdEkd0IZ+kARrdSRDE0FdrVmwnyuboqekBj6mv7gBkcXG/atS/9jgKBo2ZjqWIwqk/xE5/p6IHdM6dHlzkOIBDdB7+TH9EkdJtFmV8aOq/IAJ0QIIY7n1l0UM5JIBXJX96gLWk2+WDZ42kQS/oxKB/typUeUPyNMgMaQz2XMQei0UPVQ0TbHnzp2ctP0CD6l9RjIBoSDbpi8QvE0QsjviytKYuhc034AEkFjpWrgF1MBLM5vzpgSdOaNsALJO7662ovEF0zJ3IlEf9z1SBqj3WWLbbqMASMDfxG32xhlwAPfAAFl32BZhV8Ygs4vggFsb+id/HFfashAPNxx5INiQptQx2duGvIFBFpDHAXWEB9ECnNWUcwP2nsA8hDC71Go4kUcw9gWfr4HV+5CQ7IqcBuq3Cnz3wIQ/UilECuAXQA7Ub8UEJGxhoc/FO6IquLv/vcJVSnXu4dsOXFXn2ENYgfPui4YCJMcfcT8q3WPT0bJGtWWp6lExPPPwMX2tpYUE/QKJYQ8jMUMpVQLEFIKLY8oYYj6UqX1PFO6NKXU2B1dOD7ZzT06NMYUy9acrtnYEdyAFX8NBlZQdfBiRhZ0440GXh4KaB4vaJ/lDeFfgOOEiCMpSuOYstPT1Kscqhyo9CIXjZLNW4BmFsnwo3b+RHRgJIPjGktdQKzf1XJ2z0jzrhN9Jb0FYORb2o9ACbFTnBkgE9iltmCEeq7jzhi6K6dnzxb+WQpwC5oBV0BWgSdICEkemDxOqjv5C6943roUJ7iUduoXSBTkHsvwzoQTyRUoUcS5WtuuzDzc9OfBL0VYwhmU3wZnRQAjq4YXrECJMxeZ8zPjeLn56/qFOPC6ULX8p99Nba+NHf2+hBzKVD9CbZo4Xq5sfOQYC1VtzoGYtVzwS7CQwZNalCwPBdQ7RGRvgBVd2gVXzIY4fS9ZRoyqy2WLxuTs3odHUW9OAJO7Pq+U5ophRq3PWJJg7nAw2xYB35jrpTxKrOnb8O2r8i8PwJ5b2Le3Mey5LnkSJdMm1/lyU97GLHF+DJa5booIrPovR4uRqxupS0jjbJ1OFlHkqIezM+RzgGYlOkS0ZAovoq2dDD/UxYgCNRt0B0lFz3+dwPmr5sI3tEtBINqSRrxnV9eQIIvc0VVCyQmq5IV9VuIbKlh/1lyxe5QL8MwSgObYsR83umAUIunHi6GYtgmhMQhyCRVegMq28q8OHJAVW6VB5nxvSwy1HrcmmFZf0yFbgfsAjxdnn661bS/OEEc5HyEU2PqfdZ35roob6nmzU93I/HTbX5AxE/gW7D9t16fAYWQvSmcArImo6duDANnD/mwPlooocyADOnp+Jy1vCj4QDh8qIwznrKTbKeRTgXxQ79ZLwURn3i/NmNraFHx8/F/jHSQ7wg2dPDyVYeGw+ojYLloK0rlaVFvx26on3TnUJojnPvA6tcRw+9YQ6nrpke/DW8Az0V2yDSHafc7rnU1yFpYrp4k/VZu835NRGIAkm/M/FiYWrpqdhohGkW3Z5BD1rI5B70EH6Q63CZxw0mL7UW+7wNgrH38pXolG9no9q3n/VokZQfBRmzcgT1zb8qCfnC1FO5KkHhP7ID/kgOSw4t0Z/Ka+N+gpdmjX9s3WXVZKQxTFzy0vPHopbar/zYF+T/DGKgIW+rtzmE8pkf5K9NLMTvbNTpQnWd2pfAZHMVLZy9uniBBbk2yPfRfUbXa3WhQj7U3UQl9CxGwVkaRzoHXwOn4/rrRb1am7TayU/YV0bt5dJ1l7cX0qqMlq1JrV6ftJa6D75kAafdW4y/Dh/7/uytO3G1mb04yPCOGd0bhPt/IsVb4CX7Uu0VU/5R7hJpwPjuhIpZCu1SIhE6ST7EfUHCEyclUiGhhXBMXACuRCpw6qVfQeXFl7gbErhFbzKnS6QE86PAb3feK5Qg0OF88jxB9ZASGcPovP54yE8u/zdw9V+ooj2AJXKBzgk3LG2C4jGgYrHjrD74UyIN8AAdK8JXIg9wzveUKA4uTAu488ecSySDI1kIx/t/Cr1EMvhxWku39BM8HrzoMJFf9JOUQBGE6Q6lOf2o6PTTfVuuBBP/ALvc6tjJHL6nAAAAAElFTkSuQmCC;" parent="1" vertex="1">
          <mxGeometry x="-270.9" y="227" width="101.8" height="30" as="geometry" />
        </mxCell>
        <mxCell id="2LXiPZcjcSscnOcJBIli-34" value="" style="endArrow=classic;startArrow=classic;html=1;rounded=0;entryX=0;entryY=0.5;entryDx=0;entryDy=0;exitX=1;exitY=0.5;exitDx=0;exitDy=0;" parent="1" source="2LXiPZcjcSscnOcJBIli-33" target="2LXiPZcjcSscnOcJBIli-9" edge="1">
          <mxGeometry width="50" height="50" relative="1" as="geometry">
            <mxPoint x="90" y="240" as="sourcePoint" />
            <mxPoint x="180" y="210" as="targetPoint" />
          </mxGeometry>
        </mxCell>
        <mxCell id="OtKb_97L34Ql5yTuMeM5-5" value="" style="endArrow=classic;html=1;rounded=0;" edge="1" parent="1">
          <mxGeometry width="50" height="50" relative="1" as="geometry">
            <mxPoint x="200" y="60" as="sourcePoint" />
            <mxPoint x="200" y="-10" as="targetPoint" />
          </mxGeometry>
        </mxCell>
        <mxCell id="OtKb_97L34Ql5yTuMeM5-6" value="" style="image;aspect=fixed;perimeter=ellipsePerimeter;html=1;align=center;shadow=0;dashed=0;spacingTop=3;image=img/lib/active_directory/internet_cloud.svg;" vertex="1" parent="1">
          <mxGeometry x="140" y="-80" width="113.49" height="71.5" as="geometry" />
        </mxCell>
        <mxCell id="OtKb_97L34Ql5yTuMeM5-7" value="&lt;font style=&quot;font-size: 10px;&quot;&gt;Weekly cron job&lt;/font&gt;" style="html=1;verticalLabelPosition=bottom;align=center;labelBackgroundColor=#ffffff;verticalAlign=top;strokeWidth=2;strokeColor=#0080F0;shadow=0;dashed=0;shape=mxgraph.ios7.icons.reload;" vertex="1" parent="1">
          <mxGeometry x="56" y="63.5" width="24" height="27" as="geometry" />
        </mxCell>
        <mxCell id="OtKb_97L34Ql5yTuMeM5-9" value="" style="points=[[0,0],[0.25,0],[0.5,0],[0.75,0],[1,0],[1,0.25],[1,0.5],[1,0.75],[1,1],[0.75,1],[0.5,1],[0.25,1],[0,1],[0,0.75],[0,0.5],[0,0.25]];outlineConnect=0;gradientColor=none;html=1;whiteSpace=wrap;fontSize=12;fontStyle=0;container=1;pointerEvents=0;collapsible=0;recursiveResize=0;shape=mxgraph.aws4.group;grIcon=mxgraph.aws4.group_on_premise;strokeColor=#5A6C86;fillColor=none;verticalAlign=top;align=left;spacingLeft=30;fontColor=#5A6C86;dashed=0;" vertex="1" parent="1">
          <mxGeometry x="131.75" y="50" width="130" height="130" as="geometry" />
        </mxCell>
        <mxCell id="OtKb_97L34Ql5yTuMeM5-12" value="" style="outlineConnect=0;dashed=0;verticalLabelPosition=bottom;verticalAlign=top;align=center;html=1;shape=mxgraph.aws3.mysql_db_instance;fillColor=#2E73B8;gradientColor=none;" vertex="1" parent="1">
          <mxGeometry x="400" y="130" width="40" height="40" as="geometry" />
        </mxCell>
        <mxCell id="OtKb_97L34Ql5yTuMeM5-15" value="" style="shape=image;verticalLabelPosition=bottom;labelBackgroundColor=default;verticalAlign=top;aspect=fixed;imageAspect=0;image=https://g.foolcdn.com/art/companylogos/square/mdb.png;" vertex="1" parent="1">
          <mxGeometry x="400" y="63.5" width="40" height="40" as="geometry" />
        </mxCell>
        <mxCell id="OtKb_97L34Ql5yTuMeM5-18" value="" style="shape=image;verticalLabelPosition=bottom;labelBackgroundColor=default;verticalAlign=top;aspect=fixed;imageAspect=0;image=https://pbs.twimg.com/profile_images/1311185317861494784/7L7GAdqD_400x400.png;" vertex="1" parent="1">
          <mxGeometry x="-280" y="122" width="56" height="56" as="geometry" />
        </mxCell>
        <mxCell id="OtKb_97L34Ql5yTuMeM5-22" value="" style="strokeColor=#dddddd;shadow=1;strokeWidth=1;rounded=1;absoluteArcSize=1;arcSize=2;" vertex="1" parent="1">
          <mxGeometry x="320" y="330" width="150" height="44" as="geometry" />
        </mxCell>
        <mxCell id="OtKb_97L34Ql5yTuMeM5-23" value="Astro Landing&lt;br&gt;Page" style="sketch=0;dashed=0;connectable=0;html=1;fillColor=#757575;strokeColor=none;shape=mxgraph.gcp2.frontend_platform_services;part=1;labelPosition=right;verticalLabelPosition=middle;align=left;verticalAlign=middle;spacingLeft=5;fontSize=12;" vertex="1" parent="OtKb_97L34Ql5yTuMeM5-22">
          <mxGeometry y="0.5" width="32" height="32" relative="1" as="geometry">
            <mxPoint x="5" y="-16" as="offset" />
          </mxGeometry>
        </mxCell>
        <mxCell id="OtKb_97L34Ql5yTuMeM5-24" value="&lt;font color=&quot;#000000&quot;&gt;JSON Feed&lt;/font&gt;" style="sketch=0;html=1;verticalAlign=top;labelPosition=center;verticalLabelPosition=bottom;align=center;spacingTop=-6;fontSize=11;fontStyle=1;fontColor=#999999;shape=image;aspect=fixed;imageAspect=0;image=data:image/svg+xml,PHN2ZyB4bWxucz0iaHR0cDovL3d3dy53My5vcmcvMjAwMC9zdmciIHhtbG5zOnY9Imh0dHBzOi8vdmVjdGEuaW8vbmFubyIgd2lkdGg9IjIwIiBoZWlnaHQ9IjE5Ljk4OTk5OTc3MTExODE2NCIgdmlld0JveD0iMCAwIDIwIDE5Ljk4OTk5OTc3MTExODE2NCI+JiN4YTsJPHN0eWxlIHR5cGU9InRleHQvY3NzIj4mI3hhOwkuc3Qwe2ZpbGw6IzQyODVmNDt9JiN4YTsJLnN0MXtmaWxsOiM2NjlkZjY7fSYjeGE7CS5zdDJ7ZmlsbDojYWVjYmZhO30mI3hhOwk8L3N0eWxlPiYjeGE7CTxwYXRoIGNsYXNzPSJzdDEiIGQ9Ik0zIDMuOTlMMCA2LjQydjcuMTNsMyAyLjQ0eiIvPiYjeGE7CTxwYXRoIGNsYXNzPSJzdDAiIGQ9Ik0zIDMuOTlsLTMgNCAzLTJ6bS0zIDhsMyA0di0yeiIvPiYjeGE7CTxwYXRoIGNsYXNzPSJzdDIiIGQ9Ik0wIDE1Ljk5bDQgNCAyLTItNi02em0uMDEtOEw1Ljk5IDJsLTItMkwwIDMuOTl6Ii8+JiN4YTsJPHBhdGggY2xhc3M9InN0MSIgZD0iTTE3IDE2bDMtMi40MlY2LjQ0TDE3IDR6Ii8+JiN4YTsJPHBhdGggY2xhc3M9InN0MCIgZD0iTTE3IDE2bDMtNC0zIDJ6bTMtOGwtMy00djJ6Ii8+JiN4YTsJPGcgY2xhc3M9InN0MiI+JiN4YTsJCTxwYXRoIGQ9Ik0yMCA0bC00LTQtMiAyIDYgNnptLS4wMSA4bC01Ljk4IDUuOTkgMiAyTDIwIDE2eiIvPiYjeGE7CQk8Y2lyY2xlIGN4PSI2IiBjeT0iOS45OSIgcj0iMSIvPiYjeGE7CQk8Y2lyY2xlIGN4PSIxMCIgY3k9IjkuOTkiIHI9IjEiLz4mI3hhOwkJPGNpcmNsZSBjeD0iMTMuOTkiIGN5PSI5Ljk5IiByPSIxIi8+JiN4YTsJPC9nPiYjeGE7PC9zdmc+;" vertex="1" parent="1">
          <mxGeometry x="-50" y="130" width="42" height="34" as="geometry" />
        </mxCell>
        <mxCell id="OtKb_97L34Ql5yTuMeM5-25" value="" style="endArrow=classic;startArrow=classic;html=1;rounded=0;exitX=1;exitY=0.5;exitDx=0;exitDy=0;entryX=0;entryY=0.75;entryDx=0;entryDy=0;" edge="1" parent="1" source="OtKb_97L34Ql5yTuMeM5-24" target="OtKb_97L34Ql5yTuMeM5-9">
          <mxGeometry width="50" height="50" relative="1" as="geometry">
            <mxPoint x="70" y="220" as="sourcePoint" />
            <mxPoint x="120" y="170" as="targetPoint" />
          </mxGeometry>
        </mxCell>
        <mxCell id="OtKb_97L34Ql5yTuMeM5-26" value="" style="endArrow=classic;startArrow=classic;html=1;rounded=0;exitX=1;exitY=0.5;exitDx=0;exitDy=0;entryX=0;entryY=0.75;entryDx=0;entryDy=0;" edge="1" parent="1">
          <mxGeometry width="50" height="50" relative="1" as="geometry">
            <mxPoint x="-210" y="149.5" as="sourcePoint" />
            <mxPoint x="-70" y="150.5" as="targetPoint" />
          </mxGeometry>
        </mxCell>
        <mxCell id="OtKb_97L34Ql5yTuMeM5-30" value="" style="shape=image;verticalLabelPosition=bottom;labelBackgroundColor=default;verticalAlign=top;aspect=fixed;imageAspect=0;image=data:image/png,iVBORw0KGgoAAAANSUhEUgAAAZAAAAB3CAYAAAAtiRZCAAAAAXNSR0IArs4c6QAAIABJREFUeF7tnXmcHFW1gM+p7pmYEFQWF9xACAaSriZhpqsTQIgr8jTuIV0dFkXE7YnLQwUVEXHFlYfLwwWRkK6OAZ6KyKJinrKkqxOTdHVANCKKO0pYQrbprvN+t9MTJpO6t25VV890Oqf+nD733HO/e6dO3e0cBH6YABNgAkyACcQggDHKcBEmwASYABNgAsAOhAcBE2ACTIAJxCLADiQWNi7EBJgAE2AC7EB4DDABJsAEmEAsAuxAYmHjQkyACTABJsAOhMcAE2ACTIAJxCLADiQWNi7EBJgAE2AC7EB4DDABJsAEmEAsAuxAYmHjQkyACTABJsAOhMcAE2ACTIAJxCLADiQWNi7EBJgAE2AC7EB4DDABJsAEmEAsAuxAYmHjQkyACTABJsAOhMcAE2ACTIAJxCLADiQWNi7EBJgAE2AC7EB4DDABJsAEmEAsAuxAYmHjQkyACTABJsAOhMcAE2ACTIAJxCKwTzuQ3KxFzwQ0nps20tseR+O+Wm3p47EociEmwASYwD5IYJ9zIAsWLEhveeiQNwHBRwDgsN36HOEXiPCxynrn9n1wLHCTmQATYAKRCOxTDmQ4e9pMg5rLAeAYFSUEuKYxuPlta9bcsCUSTRZmAkyACexDBPYZB5LPLplH5N8VoW/vmdZsWCvvXrE5QhkWZQJMgAnsMwT2CQcyf/aiAxtG2kOAZ0XqWYIb3Lrz6khlWJgJMAEmsI8Q2CcciJUtXg1Ep8fpUyI4vVp3rolTlsswASbABPqZQN87kOFjipbhU6WDTvxbc3DzDN4P6YAgF2UCTKAvCfS9A7FMezUADMl7j/4AgM8EgKkKmc+5Xvn8vhwB3CgmwASYQEwCfe1ArEzxLYD0bYVj+KHrlV87bBYPN4DWA8B0mawPeMRqr3RfTM5cjAkwASbQdwT61oEMDS16Smp7eiMgHBzca7il2TBmrLnnmr+J33OmfT4CfEbaw0g/dmvlhX03ArhBTIAJMIGYBPrWgeQy9lcQ4T0yLgRwQdVzPjv2d8ssugCUk7I08BXu+tItMVlzMSbABJhAXxHoSwcyL7P4aB8NDwBSkt76fXNw/6PXrPnmyNjfh48pzDV8/LWihwPL9dWI4MYwASbABDQJ9KUDsbL2bUDwIunsA+GUas25Oej3nGlfiQBvlpVFog9U6uUvaPJlMSbABJhA3xLoOweSyxRfj0jXSXssZC9j7txFTxtoDNwPQNOCdeCWkfTIYWvXrniwb0cFN4wJMAEmoEGgrxzIjBmnTDlw6gG/BaDnSdo+0mw2Zqy5e8WfVGxyZuGjCHiJVIbgarfunKnBl0WYABNgAn1LoK8cSN60P0YAFyte/J9y685Hw3pTOKIDpj71PlXoE9/A/Or1JTdMF//OBJgAE+hXAn3jQHKZwnMR8V7FhcA/p6Y3XnDXXSu26nRmPlt4IxGuUMiudj1HfmJLp5K9XGbo6NMOwYGRg5BSB5KPTUg1HkEfHzG2pR6pbFz26F7ePDafCTCBEAJ940As0xZh2k+VtxdPdb2SyiHsUTRvFn9CQKfIdCLAWRXP+e6+MspyWXshEr4IgF4cFhIfALcQ0B2IuJJ8f2W1Xr6zE05WtvjxTsonUZZ82iiLi2ZlCsNgGK8KrMf3f+zWyyIiQlef47KnP70BzXcGVeIT3L7aK/1s/G+9wHW8TdMeHfzsyvuv2jb27zmzeCIiiHGX3EOwFQE2EcAm9OFfAwasu90rbYpSwfz5i6Y2H0t9EAwj8F1KRNvGXxeIoj+qbC5jn4YGzggqRwTNqleSL81HrQwA+sKB5Ez7JARYKWs/Aayseo70VJas3NCsRc9LpdJiVvMkicw/B3ZMnXHHvVc+FoP9XlFkyLSPSgG9CwBFMMqndGD0QwhwGY0MfM39zdX/jqrHMm2KWiZ5ebzV9UonB+m1MoW3A+I3JHX+HQnmVOrOP5K36QmN880lZhP8mqSOS13P+dAeDqQnuO5u1Y7UlAPWrbvq4XEO5EIE+kQ3+bV1i//3OxDwuopX+olOffls8TIiOlcuS+93vfKXdXR1IpObvTiHhiFdVkegSype+WOd1DG+bF84EMu0RRiSrNSBGJCprnc2xAEXuq8C8CXXc/4rju5eL5M37TcTwJUJ27kNiL7bbKYvGY0CoKN/L3cgoom/dD3nJJ22xpVhBxKXnLTcb2Hn//cVKs1DQwunpXbsf4/i8M7WZrNxVNjhnU6tt0z7NwAwU6Jng+s5mU7r6DsHksva70SCr0mdB8BXqp7zvk7AWVn7fiA4VKbDx9RRq2vXiC+XvnlyZuEKBDyniw3ahEjnVGrla3Xq6AMHAojwxUrNOU+nvXFk2IHEoaZVpmKkqLBqXfl+mbSVtV8MBD+Xa8Ofu17ppVq1xRBqLUUSXSQt6vtz3A3LxYd2os9ePQOxjjrjIBgY2QgAT5VQSWSJKZ+130AEqhfdba7nvCTRnplEZZZpi72iN06ECSJ98NRm4x1hmR97wYEQwE+rnvPyIC4hS1i7ihDhG6r10vXdYJvP2FlCCH5JEHzerTsfHF9vL3Adb1PQEpbGSkA3kI7V+TiQUXDry34sqyhv2t8kgLfKfkeiMyr18tKkDc3PXjKLDF+6woKAn6x4pQuTrlfo27sdSKbwdUB8h7TDEN5XqTlfSQKcZdr/BwAnynQRwqurNeeGJOqaTB1h/wTjbFsDACLlrwEABwLAQQAgQuNHenQGeG+86GLvgez2IsIUzq2sK/0uEiQNYZ6BaEDqUAQBXynbGzl+5ln7jwxuFctesv+BTTAycGScPUCV2ZZprwKAvESmK0tXo3XttQ7Emr34GDCMdSHj4REgerNbL/9vh+MGwuNk0R9cr3x4p/VMZnm9vPG0CsH4bmOQrl+zxvlXkL2CVcrHhQQg0gErcrG0Sm+Y9tiU4fGnbsbrVTiQBwHx6xPBLeQUlmoTfbx592zDdK5WW/p4knYPZxdnDGrFgAt4KDCnjWXa0sMnGrap9nTEB1esZ1qz8arxM1L15V5aAWjcHaUyAhpEwOcAiTTX/qEAwSeXAnRuI98/sbpheTWovrxZ/A8CulFhyzLXc06LYqtKNpcpnIuIl8lkDPSHVtWWq+L7dWTKXutA8tnC7UR4vGbrL3c9R3FKQk+LZdoite0SmTQSfLhSd+Qh4fWqmTSpsORbcY4tt6fX4vKmHfjPaMCwzgEHhQPp6heWbmfoLmGN0fd913MW6+rXkYszA9HRK5OxTFuclAo8med6TqLvlpxZlJ7CQqRFuntp6pexfWo7gvdxKjkC/HXVK0k/jPKmvZQA5E4ioajeYadEdWb2nfS/KJtoJ3dqjG55cerB2D79O4hQ0C0DAOsxhYs6WTpod5g46SDLXrh1IE0z7lhb/msEu3pCVGMdVTp112nA/NmnzWhg85KxfUYI76rWHK3ZQx86EACCc926c7kOPx2ZODMQHb294UDk4YWSciCj7cybxXMISCx9y7OUIp7p1kpXB7E5wSwesANIvCeeLmH3QHNw81GdpsnOmfatCPAySR0T8mG1VzqQXR19jH0CEVwOBHM0/xG2AsI73JrzPU35PcSsrP0BILhUXh5LrleSzlLi1tvtcnmzeAkBBYZ5IYLLqnXnvUnYMC9TWODvXHK6z/Wc4It3ARX1pQMRX3BozK/Ulok17I4fnoF0jHCXAuuY4sngU2DE7rbQetdzpO+dsEgWnf5P5TOF0wkx0IHtnBngcMUriT3Krj57tQN54ouhdV/hcwDwNB1aiLh8amPk7LCTP4ovL7H3cozsd983Tli9YdkdOrb0iozya8bwZ7rrl4vNwcQekTFyzZoVj+gq7FcHAgB/H0k3sklEd2YHojua9ORUy2YtDZg+3K0t/YNMWz5buI4IXy/73UCat6pWruhZ84TU0JB9cGoHiP/HAwLLEmjF/Itab5B8XzgQ0bBWCtsdAxcBkNadD7GOOQXgpVFDF4i6rGzhhUD4S0UHrHU959gkOmiidKguYya9nh2nTXu5A7kLAObL2h03UsJ4fbyEFWdkycssOOxNT9oyffsD8rTY6hvm+Yz9DEK4R/qiB7jb9ZzZUa3OZWxHsXw/IUtXozb3jQMZbdDO01LGDxS3Qnf1FwF4ODLwojjH6izTFufBX6no/LeH3WCNOnC6KW+ZtsgNH3T88HHXc6Z3s24d3Xu1AyF6PaLxVlVcNQAIDDWiw2ZUhmcgUWjpyVqmfRUABKduQPqOWyufrdIUttREQBdWvfIn9awB2BmPDn4klSfKTUTctb51IKJhc+a86amDze0OALxCo2PuSWN6wZ21pf/UkN0lkjvGno0+1BVlNu1ITTl8fEyfKHVMpKxlFn4nO8rYHNy8X6cbfp22Za92IACv25GasnKwuX0tABwmY4GAr614pR/GZcUOJC45eTllOB+CW9y6E/qOsUz7JuW7SHOJOPSeyQQuXfW1AxltnJUtfhiIPhU+rGhjs5E+MUpsJqHTCr3IiP9dqZXeE17/5Esoj0WTsVB1A3cirN/bHYjrOT/IzSrOwRQJJyJ7Hkv5qWPv2nCNiK4Q+WEHEhlZaIH2oY9fSATrrueYYUry2SXPIfLFUlbgTB6R7qjUyieE6bGyxW8A0duD5BDgNxXPOTpMR9K/7xVLWFbGfjcYtM6tlX8VFUBrAACukK9jjmqkjSmjueCu9Sv+oltHa6bT2P47lW4ffXN1bblqpqJbXVflLNMuSe5qgO4A76aB/eBAdn50FN8CSN9WsKo3Bzfn48z42IEkPwJDLixr73W2jwZLgzIS4jurtZIsmnPovutEnboaT7jnHciwWTzcAPq9MJwIrkul6TxVULOgISQSH6XSTRHLSnlBCBD+mB7Bk+68p/RH3aGYzxTOIsTvyOST2iDVtSeuXGjk3UmYHo9tS784kJYTMW0xXs5S9FWs28rsQOKOfnk59XHeaAESc6b9CwRYIKltMzUbR1bvXvH38b+3NvP33y5iXQVHuiD6tFsvfyT51odr7HkHYmXsHwHCwrFNEVFN09unXhw1D4eVLdwAhGF3D+6d1mwMRznia5m2CBUwV4Y76YtO4d0aXWLu3EVPG2ikw/aBbvQNunD1+rJqGSZ65Rol+smBtF8IIsGWdMxEuWQ5io8diMZAiihimYX3AeCXAotpbKLv9hGUPf35QA0RckWWX+jGoLtRuaz9aSS4QGJ6rJNcETFIxXvageQz9ssI4VaJ9X9DA06trHdu14Uxa9aiwf1T6RsJQB1WmeAGt+6IOE5aT1hCKwD800NbN71g48abtmspnCShsFAtT5iFtyLiRUldgAtr7tDQOQOpHY/tkMhN6LFFma0hoUxeJ/ZAxpY97ujioY00iftEskjSIwg4P8plMOVyiyQabxh71e+KUCYN13MGOtE9vqyVKVwEiJKslNGzjeraZpm2OK7/wiD5WKF9svZ7iUCRXGr3trQP64gIy6kAG5rUxOHq3aWwmIC6zY0s19MOxDJt4a2VG0NRj8G1v/5uUUXWFRSJ4Lxq3fmiLlHLtEXAxtdK5Yk+7tbLF+vqmwy59rl1ESV2f736aSMR3ogpvGnayMgdUWZtevqfkOqnGchoqzQC7/15JN04VveSIc9Aoo4qtXxYcNFms3FonCRR+YxdIQRLUvs/dqSmHDV6ejNnFtcgUPCdsklcuhq1vWcdSFiUyXHwf9lspAq6p6iy2dP3exKN/AwA56mGEAEsqHqOVlTRsMBmALCNiF5QrZcfSHaYJ6stly28BAn3yJ2tU4u4nAlEv0KEldOajZ8l6VDkDgS3AFBgZFQdm8NkEOiXOmlAo85ARuvNmfbFCCBNMxplD40dSFhv6v++YNai6VtSaXEBVJLFL9r+x9iad6aJbl0wDH7aS2MhYZMmdemqpx2IRqKoIPAPARln6h43zc9Y8mSa6osMYsOKYfXgQJrm6AZHzGcK5xHi5xX6rnU9Z5H+MJ4cyWFz8SkGGFr5oFUWitNbBHjTQIq+q8tQpm+y8oGIgxvVuhOaXCuuAxHttcziLQAUmKiqxUPzS5Nvoifz/9K+RyZCsksP3XS6r5kz7fMRQB65m/BsQPqqdL9kgi8MSn1dMsiT1RJ2v0JdG77b9UoCfOjTdlQif8IhCuE7Xc/RDRsvTtgol90Mohetqpc7ycEQ2q4kBPJzikdSk8TRXpWDjVAVrUCib1fqy2V7Wkpdk+VAEOn6Sq38hrCGduRAWpk1G79WRk8gepVbL6vyTADPQMJ6Kfz3dhBEEexTGldPlZkyvIYnJKysvTZCINhdBQnhM9Wa8+EodXVLtueWsEL+CTQ54PmuVxLBFUOfvIjo64P6fgniR9xa6dOhykRaMPXGP4jwKVXPyero6gWZ9jFlkRtdlvEsqplrDKRPrKqV5eEYAjROlgOZiBmIaK6VKQwDomop7lEfcO5qr3SfDDjPQKINxaHM4iMMTD0bkZ6PhDMISOTwkEYKaGv/R7ORmqu7XK6ySJmCWF6wJ5auRs3rOQcSclZa2P0oADw5dKhEuLcQOp0E2EpEM3X3L8LjZOnPkkLbOUECw9nTZhrg2yTiOgGE3r4NNYvglkFEWzeY5WQ5kImYgYyyskz7bQDwPwp2G1LTG7m77lqxNUhmX52BhI615AQ2I8HxlbpTS0pl3ix8ggC185WT71uybIhJ2RRFT085kFym+HpEuk7aAMSlTb95cQpFsETZ5tbY0vhl1yu9XweIZdpieeA/ZLK6X6Ktr8ljFr8AfONeRb0PNwfhSFlKWB17J1NGtA99PI0AT9f4YlOZ+hcy4OQOMxJ2FcVEOpDW2MkWrwYiwVX2SC8ZsgPp4lBA+KMBtDhO+PUwqyzTFpcEZ4XJ9dLSVU/OQCzTFrH1ZVPIrc1G6ggxddx5iqpxJQCcGgYdAb5V8RyxBKN82lnExHnr58oEkeDllbrz0zBdrReBWbgcAP9TIXuF6zmBcW109PeKzLxsIU+Ai4haN2zD8p8Hmf0ANRtW0A3cscLSGYj4x/bpTd3i0Uzhg1oOLlNQ5UTf4x6IzN758xdNbW5Ou8oPJKJ3uPXyHjMVdiDdGQXi4rKxX+NC2cyv01o1li9FFfe4nhPqZDq1JWr5npmB5DP2BYQg3WcIuu+RD72UsxMHAXyi6jkXhcEJO/cNAL93PWdGmJ6WA2ltjI4Ihyi9U0FNnDuZl4B02hFFRuRkGRhJneT7+AbAVqj7gzTLhx5UUCxh9cSacCeb6OMZWTtvLIvLYdKl2qClDHYgmqNNVwzpx4ZPH1xVXy4/cqurK0Quly1+HonOk4n12tLVqJ094UB2xqryNwLQtGCA+Kdpjw3OXHn/VdvG/z4vW3i1TxgaAhvJP1nnBJCVKXwKEFUnHD7keo4ipe0TFirDILTSmepF4UxojE64mmGz+FIkeotO7noCfHPVK4ncC4FPP14kVHVIaN4HwD81B2lo7DLovrqJnuTAFkuW4MMPGlOaP4qSMbNTG9orIA9J9Gh/uHZqR9TyPeFArIz9PUA4Q268OlRB3iy+hoB2CxURoGsTopGt1Jb9WQWpvTwmwmkHJVcSRXctpenAtkz7NwAwUyqLUHRrjshd0rfP8OwlxxtGcykAPl/BYZ1bc6SxofalGcgoo5AYSGJm/dOq5+y6P8IzkM7/hTrNVR7XgvbFxcck5e9zPeeIuLq7WW7SHUjY+p/uV7qmE1ntek4uDKiVtc8EAunXMBGUq3XHDtMjfg+Lk0UAf/UHNx8ZJ3y3Tv29IjN/9qIDm0Za3AGR7pM0B+FpsoMF+6IDEX1nmba4M3SSrB8R8JMVr9Q6xbOvOhBEtCu1Ull3rFumfT0AvE4m7wO+bLVXihWNQdeG8XLsQGKSC4kLA1H2CaxM4XWAKAaH4qGvul753WHmWmbRBSC5s8H04W5tqdjjCH3y2WKZiBZLBTVvGodW1OMCuVmLnomptLhoeUCQqQbSa2T3Q/ZVB9KOkiyOjcpmxOKmeuuSITsQvX+A9k1zMQ5lF4j/0RyEzESekmQHotd3u0mFfekL4fYXlogVRDpV5M3CuwhQeROdAE+qeiURZVP6hG+oRzgivHNTVAQpDIqoKWwYaTYbM+IEZtNh0ksy6tNpwfdjQqLx9sTplCQ30cf3V94sDhHQKgBIS/ry4XQD5zSM5lPBMIIjs/ZzNN4Yy8DtlQGRaVCyCoO3ul7p5In63wlxIPe7niNf/p0oIwPqmbQlLI29hifMJbhhmt8o6gbns0x7ueqIr276x7xpLyUAcTs16Nk8rdk4RNemnFn8KgK9S97X9EPXK8uj+U7iIEmyasssFAFwWZBO1Tn3fW0TfTwfyyz+JwBdruiL9eT7b0XDEEeAg55LXc/5ULJ9aT8MAE8J0ul6TqLvlpxZvBCBPhFUV9QlrFEd+az9BSL4LykTyXHpJBmO6uIZSESqx88tPGukCVdoJHga1bwBML1QZ9mo7ZxEkqcXyMxChPdVas5XVGa3bGyg2FCfGvjCI3pPtV7+b52mt5cifqvI/wBR7pno1NmLMuJklgEUeJdGFZp/X3cgoi9zGdtRnWhrBa8klMRto8+5Xvn8JMeEIh8IJO9ACh9FwEuSdCBCl2XaIhaeJOIubAXDn+OuXy7+b7v6hDgQPoUlo9/aRAf8JCDoTBcfbJI/f019eSvFrepRH2lslRRhCWZU6s4/VHos0xYOQrZnEul0hJW1zwaCbynqu9f1nKPC2tbN30UO+W4Ge8yZxSUIdE1gGxDe6tacwHzh7EAAhoYWTkvtmL46LEdOINuJXcJK3IHkTftjBBCYTyfuDERwys9eMosMX9wED34QlKcDk/pfVDsQ+oPrlYPT2SZlQEw9iU4zY9rQKmaZtli++aYqCmZb//3UbMwPu7nc0pktngFE35OPDbqq4pXfrLI7bICpNn6D9OazhdvlX4miBL3f9cqKjGWdUFaX3XViDGFds9F4TTf2ZKyM/S1AODvIEkI4pVpzbg76jR3ITirtKMlidj094kjgJSwJMI3lwcTZjTeFl7AijuYgcbHMkx5JfwMRwsJnb9iRmnLCaNYuVdVWxr5ZNbsxkOaFxbexTFsklTpR8tX8C7fmvFi3+fOyi4/1yVijkNeaGenWpyvXfjFVxpyQ2kQIRdkLXVfvWLl8dslziOheyYXRbdswfXCttvRxdiAhjj4sZlxw8cRfghO7hJX8HshYTJZp3wQAr5CR73YaBnYgcd4okjL5bPE9RKTcn0CAn1U852Vh1WqEh7/Z9ZxTlE5IsfEryg2k6dlREiaFrWUTwHernnNWWNuS+r19C1aEEt/jspK485JK0wWr1pXv77Q+yyz+DIBeEqyHVrheWRrbjGcgu1ML3QAeD5mXsJTDt33EXIQskeWo/8sgoKkbPTrq/wovYUUlFiLfXtISecalj27e8pDTVNAkf0bYvopl2v+SxXZCwLdVvJJYftN65s0pHOY3UXmHZCJj34Qvq7VyxF+GjYFL3N9c/W+tRo4RymUKz0VEcTFTOlMLSx/MDmRP6sqZ8Z7iPAMJe+dkCq8ExB/LxHQjM0f9/xDyPAOJQy2kTD6z+OWExi0qMd+gY1evL69VyRx3dPHQRpqkX9Ai2mal5kgDmQndlln4LAAGHoMkgB9VPec1URBYGftSQPiAokzF9RxlzvYo9clk588+bUbTaNyqDDOye+FfAtFtYMBtbq0sTcQlNnwHRvZ7qU/4egA4U2UrAt5U8UrSUPo7+duye0APAqLIIDchz7RHBz8bFJOtm/dAZA3LZ+xnEIIY+6qMmu3ifApLZ4BYpi2iHIu8LIFPWMw2nTqCZPgUVgg5sb+xdu2KB6MCVp7aaSmjjdtwYI5s7Xy0vny2eBkRnSupf1NqeuPZqnDNw2bxcANIcvoLt7heab8obWsPGKHv6dJyiGe6tdLVUfTGkT1+5ln7jwxu+x8AKsYo/wggPAwEjwCAuBdAADQFALWdH/rG7MqGZeJmsPSZrIRS4w3akZpyQNDe22Q4EGGbVkbNnf8nfIxXY3C3Trptn74OEI6UiD8OmDZ1rhNoVLdLhB2Igta8zOKjfTQ8ALreN+AzYTOG8aos0/4gAEhT1OokWglL8iSixlbqZZFjRPUSE6dfAgP+IeArK17pJ1EGjcax3gcHdkw94o57r5QFWYtSXahsPlM4nXZ+zUc94ROqW/bP6PvGyas3LLtDpSDkJnrcumOVS/mNg+7asGKPqKmT5UBEIyzTFknTvqhs0MTugTRczxmIBVhSyMoULgLEjwf+HOMmusq29kEXcaAk8OY/Af56v4P+ml+5cmUjqTbyTXTVizdj/woQThgj8oM0pt92Z23pP3U7wDILPwBA2TLR1jSmDwvTZ5n2zxXr8GtdzzlWZY9q4xIJvl6pO4qb5sGaLdMWm9fD0nq78I+vfFm3Qus3L1DcfdHtsjC5vyPgqypeSXUibZeOXpmBDAIeGLSROpkOREDKZexrQ04v8h5I2Igc83tYfiIEuqTilUWIpUQe3gORYMxnC28kwhUBP4vN2LNdzwkLw94q2j4lIdLESpLshMemssziIgD6vqzHwzbTh83FpxhgyGYZf3Y9R5rNUFZnWDTiVjnDnzkRt2HH2rgzR0vXHMnNKb+xJOhLXspJvgeSyD+wrpJedSDt6AvCGctSB7AD0e3ktpxl2iJe3gtlxXzfOCFs9qxbJTuQAFILDnvTk7bsv12EAZC+WJvNxqG6F9bCLgZSs3FI2AVDK2M/CAgHSzr27a7nXCHr9JBOBh99c3VteV130IzK5TP21wjhnYpyoUeNo9apK5+fseTJMK35ciJc1D4nL82Sp6HzZiK6qlovi1hlkR6egYTj2nnplaqSezbsQMIR7ibRPj0obqnLsoo+MLBj6uwklpjZgQR0jnLdsrXbil+reiVV3vA9tFqmrdiHgIsqnhMYcG1UUUiSnmtdzxEvSuljmfadIvVCoIAiFIdKZyu8dGP77xSObVfI7ojnJi+IAAAGkUlEQVT/A4mLW1n7xUSw0CA4jhCeBQDPUVQiNsbF8uVdaUjfFLbEqOSeLQavfyfeQrVCxSmsYTCMVwWVbhKV13iOSCzW9acVa2z35eJWnT7B7UnnuMiZ9vmI+KTxjSLyG1Wv/MkkG5sziyciBh8D96F5bZwPNx37ctnCSxAM+SykiT9NahZiScY4+f5DujH3dNqUpEzXQpm0vbeYfewxwNoN+PeO1JQZOrfJxzY4lyksRkRZ8pgHXM95ngpQblZxDqZIduz3YddzAnNVjOoMSXn7Jddz5NE9FYblMoVzEfEyhUikuFtJDpIwXUND9sGDO4xDmth8KiE+5O9IPbTmnmv+FlaOf2cCTGDvJtA1B2KZhe8DtJY9ZI9yuUj5NWra4vhrYHAxnWxiqhAMCDis2thVRZMFgBtdzwn8CtUZJpaiXaI8AVxQ9ZzP6uhiGSbABJhAtwl0xYFonE1f73qt/NdaSaLGQ7Cy9keAIHCKrJNuVpXSMuwlLb62UztAdp+lo1lC+O173NJsGDP4677b/xasnwkwAR0CXXEglmmvB4CszABEY36ltkxkWIv1hNzp2Op6zjT1DEaVnEcdk0notUz7UdnGWqd5EELDUyAudWulM2KB40JMgAkwgQQJJO5ArGzhhUAoTxeb0AtQlQgmzEGpQrSLS0JVrzSkYpwz7RoCmEEycU9ijerSiNYLiMZzK7Vlf05wHLAqJsAEmEBkAl1wIMVvANHbJZZspmbjyLCjtjqtsExb3LwVN3CDng+5nnOpehYija30qOs5gWk6R/XlTPuHCPDqIP2I8MZKzblOpw0yGStjfw8Q5LMMoo+79XJgcp1O6uWyTIAJMIEoBJJ3IKYtwjwEnmRCog9U6uUvRDFQJpvL2KciQuB9Aq3gfBn7t9J4NyMDB6uizirjaiF81K05n+qkje3w6uL8uSxIXkeb9Z3YxmWZABNgAqMEEnUg82cvOrBppGXhvh93PSexGEtDsxY9L5VK/zGoKwngr1XPebZ6BlK8BYBeHlje963qhuUixEjgk8/a7yWC4KyBSS3RiVS/iDIbNrieI8vjzKObCTABJjAhBBJ1IMJi1Y1hH/CI1V7pvqRaZpm2iKX1tCB9YZvZObNwBQKeE1Q2LMdyyGmpRG6Nh4Q4CY3blRRj1sMEmAATkBHoggMp3KfILSHSla5OsDvEUeDA0BphzkodLI02AuBfpHYiPAUI5gT/jre6Xulk9ezHXqnB4CgAeIZkhjWhGQs1bGURJsAE9kECiTuQnGl/GQHeO+ksEV7i1pzbZHaE5xmJ3YLbXM+RpG3dqbPjuE4E57p15/LYFnJBJsAEmEACBBJ3IO0oriL732AC9sVWEZY5LJe1FyLBj2JXIClIACurnvOikBnI9g74bBoEPKJbuZmT5sH6mAAT6F8CiTuQ1hd2pvB1QHzH5GLDd7te6asyG6xM4XWAeH0XbPyV6zknhjiQzQAQKYPhqD4EfG3FK/2wC3azSibABJhAJAJdcSDt0MTiiK0yz3UkS6MKE57t1kvfkRXLZ+03EMG1UdWGyhPc7tYdafTOloM1bZFhMM6JtCtdz3lLqA0swASYABOYAAJdcSBtu9EyC58BwA9NQDv2qAKJzqjUy0vlDqRYICInedtoleuVg8O9tyuzTFukwkxFqFvkHT/PrTnfjlCGRZkAE2ACXSXQTQfSMnw4e9pMg5rnAMFCRaL6xBuJSIsqtbJ0htHFTfSK6znzVA2KsIm+lgD+z2+kLuUAiokPEVbIBJhAhwS67kDG2ndc9vSn+/7IrA5t1io+MgXra9Y4/5LOQDL2MxDoaC1lUYQMenRVbblIeiV95mUKC1S/+wY0B7ZPW5dEprMoprMsE2ACTCAKgQl1IFEMY1kmwASYABPobQLsQHq7f9g6JsAEmEDPEmAH0rNdw4YxASbABHqbADuQ3u4fto4JMAEm0LME2IH0bNewYUyACTCB3ibADqS3+4etYwJMgAn0LAF2ID3bNWwYE2ACTKC3CbAD6e3+YeuYABNgAj1LgB1Iz3YNG8YEmAAT6G0C7EB6u3/YOibABJhAzxJgB9KzXcOGMQEmwAR6mwA7kN7uH7aOCTABJtCzBNiB9GzXsGFMgAkwgd4mwA6kt/uHrWMCTIAJ9CwBdiA92zVsGBNgAkygtwmwA+nt/mHrmAATYAI9S4AdSM92DRvGBJgAE+htAuxAert/2DomwASYQM8SYAfSs13DhjEBJsAEepvA/wMH+9J3ZXC3HwAAAABJRU5ErkJggg==;" vertex="1" parent="1">
          <mxGeometry x="-280" y="56.5" width="114.3" height="34" as="geometry" />
        </mxCell>
        <mxCell id="OtKb_97L34Ql5yTuMeM5-33" value="" style="strokeColor=#dddddd;shadow=1;strokeWidth=1;rounded=1;absoluteArcSize=1;arcSize=2;" vertex="1" parent="1">
          <mxGeometry x="360" y="204" width="120" height="60" as="geometry" />
        </mxCell>
        <mxCell id="OtKb_97L34Ql5yTuMeM5-34" value="&lt;font color=&quot;#000000&quot;&gt;Cloud&lt;br&gt;Storage&lt;/font&gt;" style="editableCssRules=.*;html=1;fontColor=#999999;shape=image;verticalLabelPosition=middle;labelBackgroundColor=#ffffff;verticalAlign=middle;labelPosition=right;align=left;spacingLeft=20;part=1;points=[];imageAspect=0;image=data:image/svg+xml,PHN2ZyB4bWxucz0iaHR0cDovL3d3dy53My5vcmcvMjAwMC9zdmciIHhtbG5zOnY9Imh0dHBzOi8vdmVjdGEuaW8vbmFubyIgd2lkdGg9IjIwIiBoZWlnaHQ9IjE2IiB2aWV3Qm94PSIwIDAgMjAgMTYiPiYjeGE7CTxzdHlsZSB0eXBlPSJ0ZXh0L2NzcyI+JiN4YTsJLnN0MHtmaWxsOiM0Mjg1ZjQ7fSYjeGE7CS5zdDF7ZmlsbDojNjY5ZGY2O30mI3hhOwkuc3Qye2ZpbGw6I2FlY2JmYTt9JiN4YTsJLnN0M3tmaWxsOiNmZmY7fSYjeGE7CTwvc3R5bGU+JiN4YTsJPHBhdGggY2xhc3M9InN0MiIgZD0iTTAgMGgyMHY3SDB6Ii8+JiN4YTsJPHBhdGggY2xhc3M9InN0MSIgZD0iTTE4IDBoMnY3aC0yeiIvPiYjeGE7CTxwYXRoIGNsYXNzPSJzdDAiIGQ9Ik0xOCA3bDItN2gtMnoiLz4mI3hhOwk8cGF0aCBjbGFzcz0ic3QxIiBkPSJNMCAwaDJ2N0gweiIvPiYjeGE7CTxnIGNsYXNzPSJzdDMiPiYjeGE7CQk8cGF0aCBkPSJNNCAzaDZ2MUg0eiIvPiYjeGE7CQk8cmVjdCB4PSIxMyIgeT0iMiIgd2lkdGg9IjMiIGhlaWdodD0iMyIgcng9IjEuNSIvPiYjeGE7CTwvZz4mI3hhOwk8cGF0aCBjbGFzcz0ic3QyIiBkPSJNMCA5aDIwdjdIMHoiLz4mI3hhOwk8cGF0aCBjbGFzcz0ic3QxIiBkPSJNMTggOWgydjdoLTJ6Ii8+JiN4YTsJPHBhdGggY2xhc3M9InN0MCIgZD0iTTE4IDE2bDItN2gtMnoiLz4mI3hhOwk8cGF0aCBjbGFzcz0ic3QxIiBkPSJNMCA5aDJ2N0gweiIvPiYjeGE7CTxnIGNsYXNzPSJzdDMiPiYjeGE7CQk8cGF0aCBkPSJNNCAxMmg2djFINHoiLz4mI3hhOwkJPHJlY3QgeD0iMTMiIHk9IjExIiB3aWR0aD0iMyIgaGVpZ2h0PSIzIiByeD0iMS41Ii8+JiN4YTsJPC9nPiYjeGE7PC9zdmc+;" vertex="1" parent="OtKb_97L34Ql5yTuMeM5-33">
          <mxGeometry width="30" height="24" relative="1" as="geometry">
            <mxPoint x="15" y="18" as="offset" />
          </mxGeometry>
        </mxCell>
        <mxCell id="OtKb_97L34Ql5yTuMeM5-35" value="" style="endArrow=classic;html=1;rounded=0;exitX=0.75;exitY=1;exitDx=0;exitDy=0;entryX=0;entryY=0.25;entryDx=0;entryDy=0;" edge="1" parent="1" source="OtKb_97L34Ql5yTuMeM5-9" target="OtKb_97L34Ql5yTuMeM5-33">
          <mxGeometry width="50" height="50" relative="1" as="geometry">
            <mxPoint x="140" y="480" as="sourcePoint" />
            <mxPoint x="190" y="430" as="targetPoint" />
          </mxGeometry>
        </mxCell>
      </root>
    </mxGraphModel>
  </diagram>
</mxfile>
